<svg width="52" height="32" viewBox="0 0 52 32" fill="none" xmlns="http://www.w3.org/2000/svg">
<path d="M43.3145 7.85215C40.2393 7.85215 37.5726 9.60406 36.258 12.1614H34.6844C33.5424 12.1614 32.4579 11.6638 31.7128 10.7921L28.0335 6.22681C25.1712 2.52449 20.6893 0.142578 15.6464 0.142578C7.00765 0.142578 0 7.15023 0 15.7918C0 24.4335 7.00765 31.4382 15.6464 31.4382C21.233 31.4382 26.1377 28.5069 28.908 24.0998L31.2899 20.9038L31.5287 20.6132C32.3859 19.569 33.6603 18.9649 35.0124 18.9649H36.0422C37.262 21.7696 40.061 23.7287 43.3117 23.7287C47.6929 23.7287 51.2485 20.1731 51.2485 15.7918C51.2485 11.4106 47.6929 7.85502 43.3117 7.85502L43.3145 7.85215ZM15.6464 23.7287C11.2623 23.7287 7.70957 20.1759 7.70957 15.7918C7.70957 11.4078 11.2594 7.85502 15.6464 7.85502C20.0334 7.85502 23.5832 11.4078 23.5832 15.7918C23.5832 20.1759 20.0334 23.7287 15.6464 23.7287Z" fill="white"/>
</svg>
