<svg width="803" height="113" viewBox="0 0 803 113" fill="none" xmlns="http://www.w3.org/2000/svg">
<path d="M150.57 30.7707C139.88 30.7707 130.61 36.8607 126.04 45.7507H120.57C116.6 45.7507 112.83 44.0207 110.24 40.9907L97.45 25.1207C87.5 12.2507 71.92 3.9707 54.39 3.9707C24.36 3.9707 0 28.3307 0 58.3707C0 88.4107 24.36 112.761 54.39 112.761C73.81 112.761 90.86 102.571 100.49 87.2507L108.77 76.1407L109.6 75.1307C112.58 71.5007 117.01 69.4007 121.71 69.4007H125.29C129.53 79.1507 139.26 85.9607 150.56 85.9607C165.79 85.9607 178.15 73.6007 178.15 58.3707C178.15 43.1407 165.79 30.7807 150.56 30.7807L150.57 30.7707ZM54.39 85.9607C39.15 85.9607 26.8 73.6107 26.8 58.3707C26.8 43.1307 39.14 30.7807 54.39 30.7807C69.64 30.7807 81.98 43.1307 81.98 58.3707C81.98 73.6107 69.64 85.9607 54.39 85.9607Z" fill="#1D1D1B"/>
<path d="M265.4 48.1703C264.11 43.8203 261.63 40.4203 257.97 37.9703C254.31 35.5203 249.9 34.2903 244.73 34.2903C236.64 34.2903 230.23 36.6103 225.52 41.2603C220.81 45.9103 218.45 52.2203 218.45 60.1803C218.45 68.1403 220.77 74.2303 225.42 78.9403C230.07 83.6503 236.2 86.0103 243.82 86.0103C249.63 86.0103 254.53 84.4703 258.51 81.3903C262.49 78.3103 264.91 74.1903 265.77 69.0203H279.27C277.72 78.0203 273.74 85.1003 267.32 90.2603C260.9 95.4303 252.9 98.0103 243.3 98.0103C231.98 98.0103 222.78 94.5003 215.69 87.4803C208.61 80.4603 205.07 71.3603 205.07 60.1603C205.07 48.9603 208.62 39.8103 215.72 32.8103C222.82 25.8203 232.1 22.3203 243.55 22.3203C252.8 22.3203 260.6 24.6403 266.93 29.2903C273.26 33.9403 277.18 40.2303 278.68 48.1503H265.38L265.4 48.1703Z" fill="#1D1D1B"/>
<path d="M305.12 67.5808L305.22 68.0908C306.53 74.6808 309.91 79.5908 315.36 82.8308C320.81 86.0708 327.21 86.9608 334.56 85.5008C340.05 84.4108 344.52 82.3808 347.97 79.4108C351.42 76.4408 353.48 72.9008 354.15 68.7708L368.84 65.8508C367.86 73.9508 364.57 80.7608 358.97 86.2808C353.37 91.8008 346.02 95.4708 336.89 97.2808C325.32 99.5808 315.4 98.0508 307.14 92.6908C298.88 87.3308 293.63 79.0108 291.39 67.7408C289.15 56.4708 290.82 46.7708 296.41 38.6608C302 30.5508 310.57 25.3408 322.14 23.0408C333.96 20.6908 343.89 22.1408 351.91 27.4008C359.93 32.6508 365.09 41.0608 367.39 52.6308L367.88 55.1008L305.11 67.5708L305.12 67.5808ZM303.73 58.5708L352.63 48.8508C350.48 43.1308 346.91 39.0208 341.92 36.5308C336.92 34.0308 331.11 33.4408 324.48 34.7608C317.89 36.0708 312.76 38.8308 309.08 43.0608C305.4 47.2808 303.62 52.4508 303.74 58.5708H303.73Z" fill="#1D1D1B"/>
<path d="M384.15 95.51V0H396.94V95.51H384.15Z" fill="#1D1D1B"/>
<path d="M430.261 15.5H417.471V0H430.261V15.5ZM417.471 95.51V24.73H430.261V95.51H417.471Z" fill="#1D1D1B"/>
<path d="M445.24 60.1798C445.24 48.7298 448.83 39.5598 456.02 32.6698C463.21 25.7798 472.83 22.3398 484.89 22.3398C496.95 22.3398 506.54 25.7698 513.69 32.6398C520.83 39.5098 524.41 48.6898 524.41 60.1798C524.41 71.6698 520.84 80.8598 513.69 87.7198C506.54 94.5899 496.94 98.0198 484.89 98.0198C472.84 98.0198 463.21 94.5899 456.02 87.7198C448.83 80.8498 445.24 71.6698 445.24 60.1798ZM458.61 60.1798C458.61 68.1498 460.97 74.4398 465.68 79.0698C470.39 83.6998 476.8 86.0098 484.89 86.0098C492.98 86.0098 499.37 83.6998 504.07 79.0698C508.76 74.4398 511.11 68.1498 511.11 60.1798C511.11 52.2098 508.76 45.8598 504.07 41.2298C499.38 36.5998 492.98 34.2898 484.89 34.2898C476.8 34.2898 470.39 36.6098 465.68 41.2598C460.97 45.9098 458.61 52.2198 458.61 60.1798Z" fill="#1D1D1B"/>
<path d="M538.55 95.5097V24.7297H551.27V36.9397C555.14 32.1997 559.49 28.6797 564.31 26.3797C569.13 24.0797 574.53 22.9297 580.52 22.9297C585.17 22.9297 589.29 23.6097 592.89 24.9597C596.48 26.3197 599.44 28.3297 601.77 30.9997C603.79 33.3197 605.23 36.0997 606.06 39.3297C606.9 42.5597 607.32 47.7497 607.32 54.8897V95.5097H594.53V54.3697C594.53 46.8797 593.23 41.5697 590.62 38.4497C588.02 35.3297 583.68 33.7697 577.61 33.7697C569.86 33.7697 563.55 36.1397 558.69 40.8697C553.82 45.6097 551.39 51.8297 551.39 59.5297V95.4997H538.54L538.55 95.5097Z" fill="#1D1D1B"/>
<path d="M679.87 64.8293V95.5893H674.35V65.0493C674.35 58.6193 672.85 53.6993 669.86 50.2693C666.86 46.8393 662.69 45.1293 657.35 45.1293C651.5 45.1293 646.88 47.2393 643.49 51.4693C640.1 55.6893 638.4 61.3793 638.4 68.5293V95.5993H632.88V19.7793H638.4V53.6793C640.06 49.4893 642.55 46.1693 645.87 43.7193C649.19 41.2693 653.31 40.0393 658.22 40.0393C664.79 40.0393 670.04 42.0993 673.98 46.2093C677.91 50.3293 679.88 56.5293 679.88 64.8393L679.87 64.8293Z" fill="#1D1D1B"/>
<path d="M737.59 95.5902H732.72L731.96 84.0002C730.3 87.7502 727.84 90.7302 724.6 92.9302C721.35 95.1302 717.38 96.2302 712.69 96.2302C706.34 96.2302 701.23 94.1502 697.37 90.0002C693.51 85.8502 691.58 79.6602 691.58 71.4302V40.6702H697.1V71.1002C697.1 77.6002 698.54 82.5602 701.43 85.9902C704.32 89.4202 708.36 91.1302 713.56 91.1302C719.26 91.1302 723.78 89.0202 727.1 84.7902C730.42 80.5702 732.08 74.8402 732.08 67.6302V40.6602H737.6V95.5702L737.59 95.5902Z" fill="#1D1D1B"/>
<path d="M799.7 53.2493C801.9 57.5093 803 62.4593 803 68.0893C803 73.7193 801.9 78.4493 799.7 82.7093C797.5 86.9693 794.43 90.2893 790.49 92.6693C786.56 95.0493 782.1 96.2393 777.12 96.2393C772.14 96.2393 767.73 95.0693 764.12 92.7193C760.51 90.3693 757.87 87.1793 756.21 83.1393L755.34 95.5893H750.57V19.7793H756.09V53.4593C757.9 49.4193 760.6 46.1693 764.21 43.7093C767.82 41.2593 772.12 40.0293 777.1 40.0293C782.08 40.0293 786.54 41.1693 790.47 43.4393C794.4 45.7093 797.47 48.9793 799.68 53.2393L799.7 53.2493ZM794.77 80.1093C796.5 76.5693 797.37 72.5693 797.37 68.0893C797.37 63.6093 796.5 59.6193 794.77 56.1193C793.04 52.6193 790.6 49.8693 787.46 47.8893C784.32 45.8993 780.73 44.9093 776.68 44.9093C772.63 44.9093 769.05 45.8993 765.9 47.8893C762.76 49.8793 760.32 52.6193 758.59 56.1193C756.86 59.6193 755.99 63.5693 755.99 67.9793C755.99 72.3893 756.86 76.5693 758.59 80.1093C760.32 83.6493 762.76 86.3893 765.9 88.3393C769.04 90.2893 772.63 91.2593 776.68 91.2593C780.73 91.2593 784.32 90.2893 787.46 88.3393C790.6 86.3893 793.04 83.6493 794.77 80.1093Z" fill="#1D1D1B"/>
</svg>
