<svg width="179" height="110" viewBox="0 0 179 110" fill="none" xmlns="http://www.w3.org/2000/svg">
<path d="M150.57 27.7707C139.88 27.7707 130.61 33.8607 126.04 42.7507H120.57C116.6 42.7507 112.83 41.0207 110.24 37.9907L97.45 22.1207C87.5 9.2507 71.92 0.970703 54.39 0.970703C24.36 0.970703 0 25.3307 0 55.3707C0 85.4107 24.36 109.761 54.39 109.761C73.81 109.761 90.86 99.5707 100.49 84.2507L108.77 73.1407L109.6 72.1307C112.58 68.5007 117.01 66.4007 121.71 66.4007H125.29C129.53 76.1507 139.26 82.9607 150.56 82.9607C165.79 82.9607 178.15 70.6007 178.15 55.3707C178.15 40.1407 165.79 27.7807 150.56 27.7807L150.57 27.7707ZM54.39 82.9607C39.15 82.9607 26.8 70.6107 26.8 55.3707C26.8 40.1307 39.14 27.7807 54.39 27.7807C69.64 27.7807 81.98 40.1307 81.98 55.3707C81.98 70.6107 69.64 82.9607 54.39 82.9607Z" fill="#1D1D1B"/>
</svg>
