<svg width="231" height="33" viewBox="0 0 231 33" fill="none" xmlns="http://www.w3.org/2000/svg">
<path d="M43.3145 8.85215C40.2393 8.85215 37.5726 10.6041 36.258 13.1614H34.6844C33.5424 13.1614 32.4579 12.6638 31.7128 11.7921L28.0335 7.22681C25.1712 3.52449 20.6893 1.14258 15.6464 1.14258C7.00765 1.14258 0 8.15023 0 16.7918C0 25.4335 7.00765 32.4382 15.6464 32.4382C21.233 32.4382 26.1377 29.5069 28.908 25.0998L31.2899 21.9038L31.5287 21.6132C32.3859 20.569 33.6603 19.9649 35.0124 19.9649H36.0422C37.262 22.7696 40.061 24.7287 43.3117 24.7287C47.6929 24.7287 51.2485 21.1731 51.2485 16.7918C51.2485 12.4106 47.6929 8.85502 43.3117 8.85502L43.3145 8.85215ZM15.6464 24.7287C11.2623 24.7287 7.70957 21.1759 7.70957 16.7918C7.70957 12.4078 11.2594 8.85502 15.6464 8.85502C20.0334 8.85502 23.5832 12.4078 23.5832 16.7918C23.5832 21.1759 20.0334 24.7287 15.6464 24.7287Z" fill="white"/>
<path d="M76.3493 13.8562C75.9782 12.6048 75.2648 11.6268 74.2119 10.922C73.159 10.2172 71.8904 9.86334 70.4031 9.86334C68.0759 9.86334 66.2319 10.5307 64.877 11.8684C63.5221 13.2061 62.8432 15.0213 62.8432 17.3111C62.8432 19.601 63.5106 21.3529 64.8482 22.7078C66.1859 24.0628 67.9493 24.7417 70.1414 24.7417C71.8127 24.7417 73.2223 24.2986 74.3673 23.4126C75.5122 22.5266 76.2083 21.3414 76.4557 19.8541H80.3393C79.8934 22.4432 78.7485 24.4799 76.9016 25.9643C75.0548 27.4515 72.7534 28.1937 69.9918 28.1937C66.7354 28.1937 64.0888 27.184 62.0492 25.1645C60.0125 23.1451 58.9941 20.5273 58.9941 17.3054C58.9941 14.0835 60.0154 11.4513 62.0578 9.43759C64.1003 7.42677 66.7699 6.41992 70.0637 6.41992C72.7247 6.41992 74.9685 7.08732 76.7894 8.42499C78.6104 9.76265 79.7381 11.5721 80.1696 13.8505H76.3435L76.3493 13.8562Z" fill="white"/>
<path d="M87.7753 19.4388L87.8041 19.5855C88.181 21.4813 89.1533 22.8937 90.7211 23.8258C92.2889 24.7578 94.13 25.0139 96.2444 24.5939C97.8237 24.2803 99.1096 23.6963 100.102 22.842C101.094 21.9876 101.687 20.9692 101.88 19.7811L106.106 18.9411C105.824 21.2713 104.877 23.2303 103.266 24.8182C101.655 26.4062 99.5411 27.4619 96.9146 27.9826C93.5863 28.6443 90.7326 28.2041 88.3564 26.6622C85.9803 25.1203 84.47 22.7269 83.8256 19.4848C83.1812 16.2428 83.6617 13.4524 85.2697 11.1194C86.8778 8.78637 89.3432 7.28761 92.6715 6.62597C96.0718 5.94994 98.9283 6.36706 101.235 7.88021C103.543 9.39048 105.027 11.8098 105.689 15.1381L105.83 15.8487L87.7725 19.4359L87.7753 19.4388ZM87.3755 16.8469L101.443 14.0507C100.824 12.4053 99.7971 11.2229 98.3616 10.5066C96.9233 9.78746 95.2519 9.61774 93.3446 9.99746C91.4489 10.3743 89.9731 11.1683 88.9145 12.3851C87.8559 13.5991 87.3438 15.0864 87.3784 16.8469H87.3755Z" fill="white"/>
<path d="M110.511 27.4754V0H114.19V27.4754H110.511Z" fill="white"/>
<path d="M123.774 4.45889H120.095V0H123.774V4.45889ZM120.095 27.4754V7.11409H123.774V27.4754H120.095Z" fill="white"/>
<path d="M128.084 17.3132C128.084 14.0194 129.117 11.3814 131.185 9.39937C133.253 7.41732 136.021 6.42773 139.49 6.42773C142.959 6.42773 145.718 7.41444 147.775 9.39074C149.829 11.367 150.859 14.0079 150.859 17.3132C150.859 20.6185 149.832 23.2622 147.775 25.2356C145.718 27.2119 142.957 28.1986 139.49 28.1986C136.024 28.1986 133.253 27.2119 131.185 25.2356C129.117 23.2593 128.084 20.6185 128.084 17.3132ZM131.93 17.3132C131.93 19.6059 132.609 21.4154 133.964 22.7473C135.319 24.0792 137.163 24.7437 139.49 24.7437C141.817 24.7437 143.656 24.0792 145.008 22.7473C146.357 21.4154 147.033 19.6059 147.033 17.3132C147.033 15.0205 146.357 13.1937 145.008 11.8618C143.658 10.5299 141.817 9.8654 139.49 9.8654C137.163 9.8654 135.319 10.5328 133.964 11.8705C132.609 13.2081 131.93 15.0233 131.93 17.3132Z" fill="white"/>
<path d="M154.926 27.4748V7.11351H158.585V10.626C159.698 9.26241 160.95 8.24981 162.336 7.58817C163.723 6.92652 165.276 6.5957 166.999 6.5957C168.337 6.5957 169.522 6.79132 170.558 7.17967C171.59 7.57091 172.442 8.14912 173.112 8.9172C173.693 9.5846 174.108 10.3843 174.346 11.3135C174.588 12.2427 174.709 13.7357 174.709 15.7897V27.4748H171.03V15.6401C171.03 13.4854 170.656 11.9579 169.905 11.0603C169.157 10.1628 167.908 9.71405 166.162 9.71405C163.933 9.71405 162.117 10.3958 160.719 11.7565C159.318 13.1201 158.619 14.9094 158.619 17.1244V27.4719H154.923L154.926 27.4748Z" fill="white"/>
<path d="M195.579 18.649V27.4977H193.991V18.7123C193.991 16.8626 193.56 15.4472 192.7 14.4605C191.837 13.4738 190.637 12.9819 189.101 12.9819C187.418 12.9819 186.089 13.5889 185.114 14.8057C184.138 16.0197 183.649 17.6565 183.649 19.7134V27.5006H182.062V5.68945H183.649V15.4415C184.127 14.2361 184.843 13.2811 185.798 12.5763C186.753 11.8715 187.939 11.5177 189.351 11.5177C191.241 11.5177 192.751 12.1103 193.885 13.2926C195.015 14.4778 195.582 16.2613 195.582 18.6519L195.579 18.649Z" fill="white"/>
<path d="M212.184 27.497H210.783L210.564 24.1629C210.087 25.2417 209.379 26.099 208.447 26.7318C207.512 27.3647 206.37 27.6812 205.021 27.6812C203.194 27.6812 201.724 27.0828 200.614 25.889C199.503 24.6951 198.948 22.9145 198.948 20.5469V11.6982H200.536V20.452C200.536 22.3219 200.95 23.7487 201.782 24.7354C202.613 25.7221 203.775 26.214 205.271 26.214C206.911 26.214 208.211 25.6071 209.166 24.3902C210.121 23.1762 210.599 21.5279 210.599 19.4538V11.6953H212.187V27.4913L212.184 27.497Z" fill="white"/>
<path d="M230.051 15.3178C230.684 16.5433 231.001 17.9672 231.001 19.5868C231.001 21.2064 230.684 22.5671 230.051 23.7926C229.418 25.018 228.535 25.9731 227.402 26.6578C226.271 27.3424 224.988 27.6847 223.556 27.6847C222.123 27.6847 220.854 27.3482 219.816 26.6721C218.777 25.9961 218.018 25.0784 217.54 23.9163L217.29 27.4977H215.918V5.68945H217.506V15.3782C218.027 14.216 218.803 13.2811 219.842 12.5734C220.88 11.8686 222.117 11.5148 223.55 11.5148C224.982 11.5148 226.265 11.8427 227.396 12.4957C228.527 13.1487 229.41 14.0894 230.045 15.3149L230.051 15.3178ZM228.633 23.0446C229.131 22.0263 229.381 20.8756 229.381 19.5868C229.381 18.298 229.131 17.1502 228.633 16.1434C228.135 15.1365 227.433 14.3455 226.53 13.7759C225.627 13.2034 224.594 12.9186 223.429 12.9186C222.264 12.9186 221.234 13.2034 220.328 13.7759C219.425 14.3483 218.723 15.1365 218.225 16.1434C217.727 17.1502 217.477 18.2865 217.477 19.5552C217.477 20.8238 217.727 22.0263 218.225 23.0446C218.723 24.063 219.425 24.8512 220.328 25.4121C221.231 25.9731 222.264 26.2521 223.429 26.2521C224.594 26.2521 225.627 25.9731 226.53 25.4121C227.433 24.8512 228.135 24.063 228.633 23.0446Z" fill="white"/>
</svg>
