<svg width="44" height="52" viewBox="0 0 44 52" fill="none" xmlns="http://www.w3.org/2000/svg">
<path d="M5.33364 51.2863C4.51024 51.2847 3.70141 51.0635 2.98673 50.6445C1.37741 49.71 0.376953 47.8961 0.376953 45.9268V6.07453C0.376953 4.09978 1.37741 2.29131 2.98673 1.35685C3.71843 0.925941 4.54966 0.704347 5.39353 0.715226C6.2374 0.726104 7.06293 0.969056 7.78383 1.41869L41.0229 21.8066C41.7156 22.2517 42.2867 22.8697 42.6825 23.6029C43.0784 24.336 43.286 25.1601 43.286 25.9979C43.286 26.8358 43.0784 27.6599 42.6825 28.393C42.2867 29.1261 41.7156 29.7442 41.0229 30.1893L7.77846 50.5827C7.04072 51.0397 6.19572 51.2829 5.33364 51.2863Z" fill="white"/>
</svg>
